<svg width="20" height="20" viewBox="0 0 20 20" fill="none" xmlns="http://www.w3.org/2000/svg">
<g id="Chat 2">
<path id="Vector" d="M12.0909 17.9999H3.36348C3.26711 17.9998 3.17464 17.9615 3.10645 17.8933C3.03833 17.8251 3 17.7326 3 17.6362V11.0909C3.00008 10.9946 3.03841 10.9021 3.10652 10.834C3.17472 10.7658 3.26711 10.7275 3.36348 10.7274H12.0909C12.571 10.7234 13.0471 10.8145 13.4918 10.9954C13.9365 11.1764 14.341 11.4436 14.6819 11.7816C15.0228 12.1197 15.2934 12.5219 15.478 12.9651C15.6627 13.4082 15.7577 13.8836 15.7577 14.3637C15.7577 14.8437 15.6627 15.3191 15.478 15.7622C15.2934 16.2054 15.0228 16.6076 14.6819 16.9457C14.341 17.2837 13.9365 17.5509 13.4918 17.7319C13.0471 17.9128 12.571 18.0039 12.0909 17.9999ZM17.1817 8.90896C17.1817 9.00533 17.1433 9.09781 17.0752 9.16592C17.007 9.23411 16.9146 9.27237 16.8183 9.27245H8.0906C7.13149 9.26443 6.21439 8.87781 5.53896 8.19673C4.86362 7.51573 4.48463 6.59542 4.48463 5.63623C4.48463 4.67705 4.86362 3.75673 5.53896 3.07574C6.21439 2.39466 7.13149 2.00803 8.0906 2H16.818C16.9144 2.00007 17.0069 2.03842 17.0751 2.10662C17.1432 2.17483 17.1815 2.26731 17.1815 2.36374L17.1817 8.90896Z" fill="#FFD106"/>
</g>
</svg>
