<svg width="36" height="40" viewBox="0 0 36 40" fill="none" xmlns="http://www.w3.org/2000/svg">
<path id="Vector" d="M22.7273 39.9997H0.908709C0.667786 39.9995 0.436599 39.9037 0.266121 39.7332C0.0958336 39.5627 0 39.3315 0 39.0904V22.7273C0.000190905 22.4864 0.0960247 22.2552 0.266312 22.0849C0.436791 21.9145 0.667786 21.8188 0.908709 21.8186H22.7273C23.9275 21.8085 25.1178 22.0363 26.2296 22.4885C27.3413 22.941 28.3525 23.6089 29.2047 24.4541C30.0569 25.2992 30.7335 26.3047 31.1951 27.4127C31.6567 28.5205 31.8944 29.7089 31.8944 30.9092C31.8944 32.1094 31.6567 33.2978 31.1951 34.4056C30.7335 35.5136 30.0569 36.5191 29.2047 37.3642C28.3525 38.2094 27.3413 38.8773 26.2296 39.3298C25.1178 39.782 23.9275 40.0098 22.7273 39.9997ZM35.4544 17.2724C35.4542 17.5133 35.3583 17.7445 35.188 17.9148C35.0176 18.0853 34.7866 18.1809 34.5456 18.1811H12.7265C10.3287 18.1611 8.03597 17.1945 6.34741 15.4918C4.65904 13.7893 3.71158 11.4885 3.71158 9.09058C3.71158 6.69262 4.65904 4.39183 6.34741 2.68934C8.03597 0.986655 10.3287 0.0200641 12.7265 0H34.5451C34.786 0.000171815 35.0172 0.0960432 35.1877 0.26656C35.3579 0.437076 35.4538 0.668283 35.4538 0.909339L35.4544 17.2724Z" fill="#FFD106"/>
</svg>
