<svg width="80" height="21" viewBox="0 0 80 21" fill="none" xmlns="http://www.w3.org/2000/svg">
<path d="M16.3803 20.2916C15.4932 20.2916 14.8862 20.0882 14.5535 19.6813C14.2208 19.2744 14.0574 18.7513 14.0574 18.1119C14.0574 17.7166 14.0866 17.2923 14.1391 16.8389C14.1917 16.3856 14.2734 15.9322 14.3726 15.4672C14.4718 15.0022 14.571 14.5488 14.6702 14.0954C14.7695 13.642 14.8745 13.2177 14.9854 12.8225C14.6527 12.6248 14.25 12.4505 13.7773 12.2935C13.2987 12.1424 12.8785 12.0494 12.4991 12.0262C11.9446 13.6362 11.4019 14.9789 10.8591 16.0543C10.3163 17.1354 9.73847 18.0015 9.11981 18.6641C8.50115 19.3267 7.81245 19.7917 7.04788 20.0649C6.28331 20.3381 5.41952 20.4776 4.44484 20.4776C3.91372 20.4776 3.39428 20.3904 2.88651 20.2102C2.37874 20.0358 1.91183 19.7627 1.49161 19.4023C1.07139 19.0419 0.732873 18.5885 0.481907 18.048C0.225104 17.5074 0.102539 16.8738 0.102539 16.1472C0.102539 15.3102 0.300977 14.4849 0.697854 13.6711C1.09473 12.8573 1.67254 12.125 2.4196 11.474C3.1725 10.823 4.08298 10.2998 5.15688 9.90458C6.23078 9.50932 7.42725 9.3117 8.75795 9.3117H9.45249C9.73847 9.3117 9.97193 9.32332 10.147 9.34657C10.503 8.22475 10.9583 7.09712 11.5244 5.9753C12.0905 4.85347 12.7968 3.8479 13.6489 2.97021C14.501 2.09252 15.499 1.37176 16.6488 0.82538C17.7986 0.273189 19.1351 0 20.6643 0H21.1604C21.3588 0 21.5689 0.0116259 21.7907 0.0348761C22.0125 0.0581262 22.2343 0.0813746 22.456 0.0988122C22.6778 0.122062 22.8529 0.145313 22.9872 0.162751C22.3043 1.61589 21.6273 3.13296 20.9619 4.70816C20.2966 6.28336 19.7071 7.8295 19.1876 9.35238C18.6682 10.8695 18.2421 12.3226 17.9095 13.6944C17.5768 15.0719 17.4017 16.2751 17.3783 17.3098C17.4017 17.5539 17.4659 17.7341 17.5768 17.8561C17.6877 17.9782 17.8744 18.0363 18.1429 18.0363H19.7363L18.9717 20.28H16.3862L16.3803 20.2916ZM2.97989 15.6997C2.97989 16.3856 3.14915 16.8854 3.4935 17.2051C3.83785 17.5248 4.28142 17.6818 4.83588 17.6818C5.30279 17.6818 5.72301 17.5771 6.11405 17.3679C6.49926 17.1586 6.87279 16.8215 7.22297 16.3623C7.579 15.8973 7.91751 15.2928 8.25018 14.543C8.58286 13.7932 8.92137 12.8806 9.27739 11.7995C9.14316 11.7762 8.99141 11.7588 8.81048 11.7472C8.63539 11.7355 8.48948 11.7297 8.37858 11.7297C7.58483 11.7297 6.85528 11.8402 6.18993 12.061C5.52457 12.2819 4.95844 12.5783 4.47986 12.9562C4.00127 13.3282 3.63357 13.7525 3.37094 14.2291C3.1083 14.7057 2.97406 15.194 2.97406 15.6997M13.2228 9.71858C13.3571 9.71858 13.5321 9.74183 13.7539 9.78251C13.9757 9.8232 14.2033 9.88133 14.4368 9.94526C14.6702 10.0092 14.9037 10.0848 15.1313 10.1603C15.3648 10.2359 15.5574 10.3115 15.7091 10.3754C16.2811 8.55025 16.8647 6.98668 17.4484 5.68467C18.032 4.38266 18.7149 3.27246 19.4911 2.34827C18.8258 2.43546 18.2071 2.62146 17.6351 2.91209C17.0573 3.1969 16.5146 3.62703 15.9951 4.20247C15.4757 4.77791 14.9854 5.51611 14.5185 6.41705C14.0516 7.31799 13.6255 8.42238 13.2228 9.71858Z" fill="white"/>
<path d="M22.52 20.6871C21.4811 20.6871 20.7458 20.4953 20.3139 20.1116C19.882 19.728 19.666 19.1816 19.666 18.4783C19.666 18.147 19.7127 17.775 19.8003 17.3565C19.8878 16.938 20.022 16.4788 20.1971 15.9673L21.6212 11.5091C21.6854 11.2882 21.7788 10.9976 21.9014 10.6314C22.0239 10.271 22.1348 9.89317 22.234 9.50955C22.3333 9.12592 22.4208 8.7481 22.4967 8.38772C22.5726 8.02735 22.6134 7.7251 22.6134 7.48097H25.9285C25.9285 7.70185 25.8935 7.97503 25.8293 8.30635C25.7651 8.63766 25.6834 8.98642 25.5958 9.3468C25.5083 9.71299 25.4091 10.0734 25.2982 10.4396C25.1873 10.7999 25.0881 11.1254 25.0005 11.4161L23.5764 15.8103C23.4188 16.2753 23.2904 16.6822 23.1795 17.031C23.0686 17.3855 23.0103 17.6355 23.0103 17.7924C23.0103 18.1237 23.1679 18.2865 23.4772 18.2865C24.0725 18.2865 24.6095 17.9029 25.0881 17.1298C25.5608 16.3567 26.0861 15.0605 26.6639 13.2296L28.4907 7.4519H33.2007L32.5703 9.37005H31.2747L30.014 13.2354C29.4829 14.8687 28.9109 16.1707 28.3039 17.153C27.6969 18.1354 27.0724 18.8852 26.4304 19.4141C25.7884 19.9431 25.1347 20.2918 24.4752 20.4546C23.8099 20.6173 23.1562 20.7045 22.52 20.7045" fill="white"/>
<path d="M34.4962 20.2918C33.4807 20.2918 32.7336 20.1233 32.255 19.7803C31.7823 19.4374 31.543 18.8736 31.543 18.0773C31.543 17.5018 31.6539 16.845 31.8756 16.0952C32.0507 15.5662 32.2317 15.0257 32.4068 14.4735C32.5819 13.9213 32.7803 13.311 33.0021 12.6425C33.2239 11.9683 33.469 11.2185 33.7316 10.3815C33.9943 9.54445 34.3036 8.56213 34.6596 7.44031H38.0739C37.9864 7.68443 37.823 8.14944 37.5953 8.84694C37.3619 9.53863 37.1109 10.3059 36.8308 11.1429C36.5565 11.9799 36.2821 12.7995 36.0195 13.6016C35.7569 14.4037 35.5409 15.0373 35.3892 15.5023C35.1207 16.2754 34.9923 16.7694 34.9923 16.9903C34.9923 17.2984 35.0448 17.5483 35.1557 17.7343C35.2666 17.9203 35.5001 18.0133 35.8502 18.0133H37.3736L36.5448 20.2918H34.4904H34.4962ZM36.3872 2.12183H39.8365L38.7743 5.16178H35.325L36.3872 2.12183Z" fill="white"/>
<path d="M43.9166 18.3737C43.473 19.1642 42.9477 19.7222 42.3407 20.0419C41.7338 20.3616 41.1501 20.5186 40.6015 20.5186C39.6968 20.5186 39.0081 20.2337 38.5471 19.6583C38.0802 19.0829 37.8525 18.304 37.8525 17.31C37.8525 16.3161 38.0218 15.2466 38.3661 14.0899C38.7105 12.9332 39.2124 11.8579 39.8778 10.8697C40.5431 9.87579 41.3602 9.05622 42.3349 8.40522C43.3096 7.75421 44.4243 7.42871 45.685 7.42871H50.0623L47.1733 16.2463C47.1266 16.4033 47.0741 16.5718 47.0099 16.7578C46.9457 16.9438 46.9107 17.124 46.9107 17.3042C46.9107 17.4844 46.9749 17.6472 47.1091 17.7983C47.2433 17.9494 47.471 18.0308 47.8036 18.0308H49.2627L48.4982 20.2802H45.9768C45.3115 20.2802 44.8271 20.0884 44.5177 19.7048C44.2084 19.3212 44.0508 18.8736 44.0508 18.3679H43.9166V18.3737ZM42.0256 18.1064C42.3991 18.1064 42.7785 17.8099 43.152 17.2112C43.5255 16.6183 43.8816 15.8918 44.2142 15.0315C44.5469 14.1713 44.8621 13.2587 45.1597 12.288C45.4574 11.3173 45.7317 10.4512 45.971 9.67817H45.3056C44.7512 9.67817 44.2434 9.92811 43.7765 10.4222C43.3096 10.9162 42.901 11.5207 42.5509 12.2241C42.1948 12.9274 41.903 13.6772 41.6696 14.4677C41.4361 15.2582 41.2785 15.9673 41.191 16.5835C41.1268 16.8276 41.0918 16.9671 41.0918 17.0136C41.0918 17.4554 41.1793 17.746 41.3544 17.8913C41.5295 18.0366 41.7513 18.1064 42.0197 18.1064" fill="white"/>
<path d="M52.9687 20.2918C51.9532 20.2918 51.2003 20.1233 50.7159 19.7803C50.2315 19.4374 49.9863 18.8736 49.9863 18.0772C49.9863 17.7692 50.0272 17.4321 50.1031 17.0717C50.1789 16.7055 50.284 16.3044 50.4182 15.8685C50.4824 15.7174 50.5933 15.3977 50.7509 14.9094C50.9085 14.427 51.0894 13.8631 51.2995 13.2238C51.5096 12.5844 51.7256 11.9218 51.9474 11.2417C52.1691 10.5616 52.3676 9.93387 52.5427 9.35843H51.1186L51.7839 7.44029H53.1438C53.3423 6.84741 53.5115 6.32428 53.6574 5.8709C53.8033 5.41752 53.9609 4.89439 54.136 4.30151H57.5503L56.4881 7.44029H58.7118L57.9822 9.35843H55.8578L53.8033 15.7348C53.6049 16.3742 53.5057 16.8043 53.5057 17.0252C53.5057 17.31 53.5582 17.5541 53.6574 17.7517C53.7567 17.9494 53.9959 18.0482 54.3695 18.0482H56.1613L55.2683 20.2976H52.9804L52.9687 20.2918Z" fill="white"/>
<path d="M56.7158 17.1879C56.7158 15.8685 56.9201 14.6013 57.3286 13.3865C57.7372 12.1775 58.2858 11.1138 58.9687 10.2012C59.6515 9.28867 60.457 8.55628 61.3733 8.00409C62.2896 7.4519 63.2584 7.17871 64.274 7.17871C64.6942 7.17871 65.1203 7.24265 65.5522 7.37634C65.9841 7.51003 66.3693 7.71346 66.7136 7.98665C67.058 8.25984 67.3323 8.6086 67.5424 9.0271C67.7525 9.4456 67.8575 9.92804 67.8575 10.4802C67.8575 11.6718 67.6649 12.8576 67.2797 14.0491C66.8945 15.2407 66.3751 16.3102 65.7214 17.2693C65.0677 18.2284 64.3032 19.0072 63.416 19.6176C62.5347 20.2221 61.5951 20.5243 60.597 20.5243C59.3364 20.5243 58.3734 20.2221 57.708 19.6176C57.0427 19.0131 56.7158 18.2051 56.7158 17.1879ZM64.5133 10.6488C64.5133 10.3 64.4316 10.0385 64.2623 9.86992C64.0989 9.70717 63.8888 9.61998 63.6495 9.61998C63.2526 9.61998 62.8441 9.91642 62.4238 10.5093C62.0036 11.1022 61.6184 11.8055 61.2624 12.6076C60.9064 13.4098 60.6145 14.2235 60.3811 15.0373C60.1476 15.851 60.0309 16.4904 60.0309 16.9554C60.0309 17.3332 60.1126 17.6122 60.2819 17.7982C60.4453 17.9842 60.6496 18.0772 60.8947 18.0772C61.1398 18.0772 61.3966 17.9377 61.6768 17.6645C61.9511 17.3914 62.2254 17.0252 62.488 16.5718C62.7565 16.1184 63.0075 15.6185 63.2526 15.0663C63.4977 14.5141 63.7137 13.9678 63.9005 13.4156C64.0872 12.8634 64.239 12.3461 64.3499 11.8636C64.4607 11.3812 64.5133 10.9685 64.5133 10.643" fill="white"/>
<path d="M75.8595 20.2917C75.0833 20.2917 74.4121 20.1405 73.8343 19.8267C73.2565 19.5186 72.9705 18.9141 72.9705 18.0073C72.9705 17.6993 73.0347 17.2517 73.169 16.6705C73.3032 16.0892 73.4958 15.4208 73.7468 14.6709C73.9977 13.9211 74.3129 13.1132 74.6748 12.2413C75.0366 11.3694 75.4452 10.4975 75.8887 9.61403H73.6009C73.49 9.89884 73.3499 10.3057 73.1865 10.8347C73.0231 11.3636 72.8246 11.9507 72.6087 12.6017C72.3869 13.2527 72.1651 13.9211 71.9433 14.6186C71.7215 15.3103 71.4997 15.9846 71.278 16.6356C71.0562 17.2866 70.8577 17.8678 70.6826 18.3852C70.5076 18.9025 70.3733 19.3035 70.2858 19.5942C70.1515 20.0534 69.7897 20.2859 69.1885 20.2859H66.9648L72.1418 4.88843C72.2293 4.88843 72.4219 4.88843 72.7196 4.90587C73.0172 4.91749 73.3265 4.92331 73.6475 4.92331H75.1533L74.3246 7.4692H79.8984C79.1046 9.05602 78.4743 10.3813 78.0074 11.4508C77.5404 12.5203 77.1903 13.4038 76.9451 14.1071C76.7 14.8104 76.5424 15.3743 76.4665 15.7928C76.3907 16.2113 76.3498 16.5658 76.3498 16.8506C76.3498 17.3563 76.4665 17.6818 76.7 17.8272C76.9335 17.9725 77.1903 18.0422 77.4821 18.0422H79.4723L78.6085 20.2917H75.8537H75.8595Z" fill="white"/>
</svg>
