<svg width="100" height="50" viewBox="0 0 100 50" fill="none" xmlns="http://www.w3.org/2000/svg">
<path d="M95.902 23.7478L96.5072 23.6001C97.5608 23.3447 98.2212 22.2787 97.9658 21.2251C97.71 20.1602 96.6444 19.5111 95.5908 19.7665L94.9856 19.9141C92.3446 8.87285 88.9249 0.237053 87.3443 0.614465C85.7638 0.991877 87.5695 10.0177 90.2105 21.059L89.6388 21.194C89.2053 19.6269 88.6654 18.2336 88.0459 17.4203C86.5816 15.5195 84.4615 15.3972 82.6776 15.4883C80.9276 15.5781 76.2699 15.9492 68.928 17.4188C68.6813 17.4735 68.4341 17.5169 68.1873 17.5717C67.0365 16.4733 65.1703 15.0064 63.2144 14.7421C63.2144 14.7421 62.7116 15.7909 63.2045 18.6113C62.3969 18.7894 61.6787 18.9414 61.0505 19.0786C61.0505 19.0786 61.0501 19.0673 61.0496 19.0561C60.9012 17.5459 59.5466 16.444 58.0365 16.5925C57.7211 16.6272 57.43 16.7063 57.1519 16.8301C56.4096 15.4671 55.6554 14.9757 54.916 14.8684C54.0201 15.1064 53.2594 15.3279 52.7459 15.506C43.9819 18.5347 42.7217 22.8365 29.0786 30.1928C25.7093 32.0077 23.8139 31.2546 22.3182 28.8346C20.1845 25.4097 17.5914 18.2693 16.359 17.1062C14.8329 15.6603 10.4435 17.7179 9.63476 20.2263C8.28895 24.3618 8.96721 34.3698 8.22573 38.3349C7.80327 40.591 3.39044 42.3328 4.16277 43.8868C4.57891 44.708 6.83147 45.3342 10.7332 45.603L11.98 46.8447C12.4739 47.3348 13.1512 47.5917 13.8398 47.5539C16.3231 47.4133 20.9492 47.1 23.5203 46.5941C24.2163 46.4543 24.7972 45.9682 25.1461 45.3326C27.7067 45.1438 46.0328 43.0829 49.2616 43.2079C52.4787 43.3219 55.1339 44.7132 57.114 45.9042C59.0942 47.0952 61.6213 47.5072 70.0745 46.1081C78.134 44.7693 78.1333 43.2761 77.924 41.9493C77.6396 40.139 75.5876 34.7199 74.3023 32.1787C73.8614 31.302 72.7142 29.7057 69.7725 29.9883C61.8711 30.7328 51.4677 37.9082 42.6312 40.8153L42.5452 40.6376C50.4198 37.7222 54.901 33.9302 62.4276 30.7906C62.5836 30.7281 62.5067 30.4935 62.3382 30.5225C49.8576 33.3885 32.3663 38.6301 27.2844 40.6238C27.8892 39.5824 28.027 38.1631 24.9537 38.5526C46.8584 29.5217 69.1109 23.9503 73.0935 23.3789C73.2719 24.7861 73.5799 25.7358 74.0364 27.3133C74.062 27.3915 74.0876 27.4697 74.1015 27.5371C73.6636 27.6218 71.9388 28.0726 70.8192 28.3757C70.7184 28.4022 70.7471 28.5595 70.8483 28.5443C72.2008 28.4132 74.3361 28.3426 75.2669 30.7842C75.9328 32.5121 77.0982 34.8769 78.1851 35.7854C81.3341 34.7143 90.4491 31.4006 90.5914 28.0354C90.6288 27.2421 90.5551 26.2042 90.4096 25.0672L91.1273 24.9039C93.7683 35.9452 97.1881 44.581 98.7686 44.2036C100.349 43.8262 98.5435 34.8003 95.9024 23.7591M74.7417 40.9742C75.1445 40.8569 75.4464 41.3544 75.1409 41.6489C74.9228 41.8609 74.501 42.0694 73.7055 42.2696C72.2383 42.654 66.1785 44.2214 62.8797 45.2191L62.8301 45.1079C66.4175 43.6693 72.5725 41.6344 74.7417 40.9742ZM73.4873 38.0585C73.8513 38.1124 74.2949 38.7628 72.872 39.1228C69.9816 39.856 61.9749 42.5728 58.8325 43.5192L58.7829 43.408C63.5212 41.5972 71.6113 37.8138 73.4764 38.0702M72.5969 35.1967C72.7954 35.3588 72.894 35.864 72.0637 36.043C67.7218 36.9789 57.7839 40.9576 54.7874 41.8758L54.7492 41.7642C60.6383 39.5811 71.0164 34.1035 72.5969 35.1967ZM71.5253 32.3306C71.6817 32.5734 71.5244 32.8962 71.2437 32.9522C65.4507 34.1022 53.5933 39.3538 50.7311 40.2329L50.6925 40.1099C57.732 37.5433 70.2278 30.3555 71.514 32.331M48.1209 18.5002C49.4977 17.8252 51.3099 16.9977 52.7619 16.5121L52.5776 17.3111C51.1482 17.7958 49.3886 18.5195 48.034 19.1823L48.1322 18.4998L48.1209 18.5002ZM47.9366 20.1816C49.346 19.4713 50.8153 18.8493 52.4793 18.2877C52.4793 18.2877 52.4049 19.8856 52.7954 21.5109C51.2869 21.9987 49.649 22.6498 47.9024 23.4182C47.724 22.011 47.7962 20.9449 47.9253 20.182M72.9244 19.2677C48.2312 24.9101 32.544 32.0621 32.544 32.0621C50.6319 25.5646 64.545 21.9988 72.88 20.1744C72.8726 20.5706 72.8765 20.9664 72.8912 21.3504C70.5543 21.7682 55.3466 24.6144 18.2271 38.6637C17.9817 38.7523 17.7249 38.8414 17.4686 38.9417C10.4103 41.6108 8.04769 42.8327 7.36947 43.4357C6.45625 43.516 5.93404 43.4682 5.88062 43.2553C5.7182 42.5602 10.1215 40.2757 16.618 37.4132C18.398 36.6322 19.3175 34.6512 18.7824 32.7939C17.4638 28.2065 15.5397 21.4024 15.1045 20.0843C14.7848 19.1237 14.071 19.0945 13.3776 19.3021C12.9305 19.4437 12.6873 19.2947 13.2421 19.0132C14.4299 18.4246 15.1363 18.5559 15.5238 18.9256C16.5199 19.8263 19.2559 27.1535 21.0378 30.5467C22.5881 33.5076 25.117 34.2589 28.7452 32.4115C38.2878 27.5656 42.1182 23.3235 46.6723 20.8409C46.6023 21.6694 46.6187 22.6869 46.7902 23.9134C42.9878 25.643 38.5567 28.0869 34.477 30.5512C39.1036 28.4845 44.0851 26.5285 48.4845 25.0248C56.6245 22.2463 65.9632 19.7498 73.0257 18.3701C72.9796 18.6434 72.9461 18.9501 72.9248 19.279M87.7763 3.9124C88.3815 3.76473 90.4772 11.207 92.6999 20.4883L90.8392 20.933C88.6168 11.663 87.1711 4.06006 87.7876 3.91196M74.4736 19.8417C76.6954 19.3718 78.425 19.0452 79.6388 18.8403C79.9086 18.796 80.0911 18.5401 80.0585 18.2812C80.0142 18.0114 79.7466 17.818 79.466 17.8741C77.8159 18.2089 76.2002 18.5537 74.6188 18.9085C74.7913 18.3929 75.138 17.9949 75.6763 17.8725C78.4555 17.1888 82.3878 16.4836 85.0865 16.6515C87.3543 16.7907 88.3508 19.4674 88.4663 19.825C87.8299 18.5711 87.1001 17.8299 86.5171 17.9654C85.5417 18.1951 85.3356 20.7823 86.0483 23.7301C86.103 23.9768 86.169 24.2232 86.2346 24.4582C85.4547 24.771 79.8168 26.424 75.653 27.2852C74.8529 24.7141 74.3878 22.0283 74.474 19.853M88.4568 29.5992C87.282 30.8208 83.1559 32.6647 78.8339 34.1202C78.3322 33.4268 77.8483 32.6082 77.3948 31.698C80.8887 30.7721 85.3024 29.0529 87.6142 27.6858C88.079 28.3015 88.6737 28.7651 89.066 28.6708C89.1781 28.6439 89.2889 28.5831 89.3871 28.4888C89.1385 29.0866 88.4573 29.6105 88.4573 29.6105M88.8214 23.4766C88.6724 22.8375 89.0552 22.2006 89.6943 22.0516L96.0613 20.529C96.3749 20.449 96.6995 20.6515 96.7794 20.9652C96.8593 21.2789 96.6568 21.6034 96.3431 21.6833L88.8218 23.4879L88.8214 23.4766ZM98.3058 40.986C97.7006 41.1337 95.6049 33.6914 93.3826 24.4214L95.2429 23.9654C97.4653 33.2354 98.911 40.8383 98.2945 40.9864" fill="url(#paint0_linear_3626_22582)"/>
<path d="M95.902 23.7478L96.5072 23.6001C97.5608 23.3447 98.2212 22.2787 97.9658 21.2251C97.71 20.1602 96.6444 19.5111 95.5908 19.7665L94.9856 19.9141C92.3446 8.87285 88.9249 0.237053 87.3443 0.614465C85.7638 0.991877 87.5695 10.0177 90.2105 21.059L89.6388 21.194C89.2053 19.6269 88.6654 18.2336 88.0459 17.4203C86.5816 15.5195 84.4615 15.3972 82.6776 15.4883C80.9276 15.5781 76.2699 15.9492 68.928 17.4188C68.6813 17.4735 68.4341 17.5169 68.1873 17.5717C67.0365 16.4733 65.1703 15.0064 63.2144 14.7421C63.2144 14.7421 62.7116 15.7909 63.2045 18.6113C62.3969 18.7894 61.6787 18.9414 61.0505 19.0786C61.0505 19.0786 61.0501 19.0673 61.0496 19.0561C60.9012 17.5459 59.5466 16.444 58.0365 16.5925C57.7211 16.6272 57.43 16.7063 57.1519 16.8301C56.4096 15.4671 55.6554 14.9757 54.916 14.8684C54.0201 15.1064 53.2594 15.3279 52.7459 15.506C43.9819 18.5347 42.7217 22.8365 29.0786 30.1928C25.7093 32.0077 23.8139 31.2546 22.3182 28.8346C20.1845 25.4097 17.5914 18.2693 16.359 17.1062C14.8329 15.6603 10.4435 17.7179 9.63476 20.2263C8.28895 24.3618 8.96721 34.3698 8.22573 38.3349C7.80327 40.591 3.39044 42.3328 4.16277 43.8868C4.57891 44.708 6.83147 45.3342 10.7332 45.603L11.98 46.8447C12.4739 47.3348 13.1512 47.5917 13.8398 47.5539C16.3231 47.4133 20.9492 47.1 23.5203 46.5941C24.2163 46.4543 24.7972 45.9682 25.1461 45.3326C27.7067 45.1438 46.0328 43.0829 49.2616 43.2079C52.4787 43.3219 55.1339 44.7132 57.114 45.9042C59.0942 47.0952 61.6213 47.5072 70.0745 46.1081C78.134 44.7693 78.1333 43.2761 77.924 41.9493C77.6396 40.139 75.5876 34.7199 74.3023 32.1787C73.8614 31.302 72.7142 29.7057 69.7725 29.9883C61.8711 30.7328 51.4677 37.9082 42.6312 40.8153L42.5452 40.6376C50.4198 37.7222 54.901 33.9302 62.4276 30.7906C62.5836 30.7281 62.5067 30.4935 62.3382 30.5225C49.8576 33.3885 32.3663 38.6301 27.2844 40.6238C27.8892 39.5824 28.027 38.1631 24.9537 38.5526C46.8584 29.5217 69.1109 23.9503 73.0935 23.3789C73.2719 24.7861 73.5799 25.7358 74.0364 27.3133C74.062 27.3915 74.0876 27.4697 74.1015 27.5371C73.6636 27.6218 71.9388 28.0726 70.8192 28.3757C70.7184 28.4022 70.7471 28.5595 70.8483 28.5443C72.2008 28.4132 74.3361 28.3426 75.2669 30.7842C75.9328 32.5121 77.0982 34.8769 78.1851 35.7854C81.3341 34.7143 90.4491 31.4006 90.5914 28.0354C90.6288 27.2421 90.5551 26.2042 90.4096 25.0672L91.1273 24.9039C93.7683 35.9452 97.1881 44.581 98.7686 44.2036C100.349 43.8262 98.5435 34.8003 95.9024 23.7591M74.7417 40.9742C75.1445 40.8569 75.4464 41.3544 75.1409 41.6489C74.9228 41.8609 74.501 42.0694 73.7055 42.2696C72.2383 42.654 66.1785 44.2214 62.8797 45.2191L62.8301 45.1079C66.4175 43.6693 72.5725 41.6344 74.7417 40.9742ZM73.4873 38.0585C73.8513 38.1124 74.2949 38.7628 72.872 39.1228C69.9816 39.856 61.9749 42.5728 58.8325 43.5192L58.7829 43.408C63.5212 41.5972 71.6113 37.8138 73.4764 38.0702M72.5969 35.1967C72.7954 35.3588 72.894 35.864 72.0637 36.043C67.7218 36.9789 57.7839 40.9576 54.7874 41.8758L54.7492 41.7642C60.6383 39.5811 71.0164 34.1035 72.5969 35.1967ZM71.5253 32.3306C71.6817 32.5734 71.5244 32.8962 71.2437 32.9522C65.4507 34.1022 53.5933 39.3538 50.7311 40.2329L50.6925 40.1099C57.732 37.5433 70.2278 30.3555 71.514 32.331M48.1209 18.5002C49.4977 17.8252 51.3099 16.9977 52.7619 16.5121L52.5776 17.3111C51.1482 17.7958 49.3886 18.5195 48.034 19.1823L48.1322 18.4998L48.1209 18.5002ZM47.9366 20.1816C49.346 19.4713 50.8153 18.8493 52.4793 18.2877C52.4793 18.2877 52.4049 19.8856 52.7954 21.5109C51.2869 21.9987 49.649 22.6498 47.9024 23.4182C47.724 22.011 47.7962 20.9449 47.9253 20.182M72.9244 19.2677C48.2312 24.9101 32.544 32.0621 32.544 32.0621C50.6319 25.5646 64.545 21.9988 72.88 20.1744C72.8726 20.5706 72.8765 20.9664 72.8912 21.3504C70.5543 21.7682 55.3466 24.6144 18.2271 38.6637C17.9817 38.7523 17.7249 38.8414 17.4686 38.9417C10.4103 41.6108 8.04769 42.8327 7.36947 43.4357C6.45625 43.516 5.93404 43.4682 5.88062 43.2553C5.7182 42.5602 10.1215 40.2757 16.618 37.4132C18.398 36.6322 19.3175 34.6512 18.7824 32.7939C17.4638 28.2065 15.5397 21.4024 15.1045 20.0843C14.7848 19.1237 14.071 19.0945 13.3776 19.3021C12.9305 19.4437 12.6873 19.2947 13.2421 19.0132C14.4299 18.4246 15.1363 18.5559 15.5238 18.9256C16.5199 19.8263 19.2559 27.1535 21.0378 30.5467C22.5881 33.5076 25.117 34.2589 28.7452 32.4115C38.2878 27.5656 42.1182 23.3235 46.6723 20.8409C46.6023 21.6694 46.6187 22.6869 46.7902 23.9134C42.9878 25.643 38.5567 28.0869 34.477 30.5512C39.1036 28.4845 44.0851 26.5285 48.4845 25.0248C56.6245 22.2463 65.9632 19.7498 73.0257 18.3701C72.9796 18.6434 72.9461 18.9501 72.9248 19.279M87.7763 3.9124C88.3815 3.76473 90.4772 11.207 92.6999 20.4883L90.8392 20.933C88.6168 11.663 87.1711 4.06006 87.7876 3.91196M74.4736 19.8417C76.6954 19.3718 78.425 19.0452 79.6388 18.8403C79.9086 18.796 80.0911 18.5401 80.0585 18.2812C80.0142 18.0114 79.7466 17.818 79.466 17.8741C77.8159 18.2089 76.2002 18.5537 74.6188 18.9085C74.7913 18.3929 75.138 17.9949 75.6763 17.8725C78.4555 17.1888 82.3878 16.4836 85.0865 16.6515C87.3543 16.7907 88.3508 19.4674 88.4663 19.825C87.8299 18.5711 87.1001 17.8299 86.5171 17.9654C85.5417 18.1951 85.3356 20.7823 86.0483 23.7301C86.103 23.9768 86.169 24.2232 86.2346 24.4582C85.4547 24.771 79.8168 26.424 75.653 27.2852C74.8529 24.7141 74.3878 22.0283 74.474 19.853M88.4568 29.5992C87.282 30.8208 83.1559 32.6647 78.8339 34.1202C78.3322 33.4268 77.8483 32.6082 77.3948 31.698C80.8887 30.7721 85.3024 29.0529 87.6142 27.6858C88.079 28.3015 88.6737 28.7651 89.066 28.6708C89.1781 28.6439 89.2889 28.5831 89.3871 28.4888C89.1385 29.0866 88.4573 29.6105 88.4573 29.6105M88.8214 23.4766C88.6724 22.8375 89.0552 22.2006 89.6943 22.0516L96.0613 20.529C96.3749 20.449 96.6995 20.6515 96.7794 20.9652C96.8593 21.2789 96.6568 21.6034 96.3431 21.6833L88.8218 23.4879L88.8214 23.4766ZM98.3058 40.986C97.7006 41.1337 95.6049 33.6914 93.3826 24.4214L95.2429 23.9654C97.4653 33.2354 98.911 40.8383 98.2945 40.9864" fill="url(#paint1_radial_3626_22582)"/>
<path d="M95.902 23.7478L96.5072 23.6001C97.5608 23.3447 98.2212 22.2787 97.9658 21.2251C97.71 20.1602 96.6444 19.5111 95.5908 19.7665L94.9856 19.9141C92.3446 8.87285 88.9249 0.237053 87.3443 0.614465C85.7638 0.991877 87.5695 10.0177 90.2105 21.059L89.6388 21.194C89.2053 19.6269 88.6654 18.2336 88.0459 17.4203C86.5816 15.5195 84.4615 15.3972 82.6776 15.4883C80.9276 15.5781 76.2699 15.9492 68.928 17.4188C68.6813 17.4735 68.4341 17.5169 68.1873 17.5717C67.0365 16.4733 65.1703 15.0064 63.2144 14.7421C63.2144 14.7421 62.7116 15.7909 63.2045 18.6113C62.3969 18.7894 61.6787 18.9414 61.0505 19.0786C61.0505 19.0786 61.0501 19.0673 61.0496 19.0561C60.9012 17.5459 59.5466 16.444 58.0365 16.5925C57.7211 16.6272 57.43 16.7063 57.1519 16.8301C56.4096 15.4671 55.6554 14.9757 54.916 14.8684C54.0201 15.1064 53.2594 15.3279 52.7459 15.506C43.9819 18.5347 42.7217 22.8365 29.0786 30.1928C25.7093 32.0077 23.8139 31.2546 22.3182 28.8346C20.1845 25.4097 17.5914 18.2693 16.359 17.1062C14.8329 15.6603 10.4435 17.7179 9.63476 20.2263C8.28895 24.3618 8.96721 34.3698 8.22573 38.3349C7.80327 40.591 3.39044 42.3328 4.16277 43.8868C4.57891 44.708 6.83147 45.3342 10.7332 45.603L11.98 46.8447C12.4739 47.3348 13.1512 47.5917 13.8398 47.5539C16.3231 47.4133 20.9492 47.1 23.5203 46.5941C24.2163 46.4543 24.7972 45.9682 25.1461 45.3326C27.7067 45.1438 46.0328 43.0829 49.2616 43.2079C52.4787 43.3219 55.1339 44.7132 57.114 45.9042C59.0942 47.0952 61.6213 47.5072 70.0745 46.1081C78.134 44.7693 78.1333 43.2761 77.924 41.9493C77.6396 40.139 75.5876 34.7199 74.3023 32.1787C73.8614 31.302 72.7142 29.7057 69.7725 29.9883C61.8711 30.7328 51.4677 37.9082 42.6312 40.8153L42.5452 40.6376C50.4198 37.7222 54.901 33.9302 62.4276 30.7906C62.5836 30.7281 62.5067 30.4935 62.3382 30.5225C49.8576 33.3885 32.3663 38.6301 27.2844 40.6238C27.8892 39.5824 28.027 38.1631 24.9537 38.5526C46.8584 29.5217 69.1109 23.9503 73.0935 23.3789C73.2719 24.7861 73.5799 25.7358 74.0364 27.3133C74.062 27.3915 74.0876 27.4697 74.1015 27.5371C73.6636 27.6218 71.9388 28.0726 70.8192 28.3757C70.7184 28.4022 70.7471 28.5595 70.8483 28.5443C72.2008 28.4132 74.3361 28.3426 75.2669 30.7842C75.9328 32.5121 77.0982 34.8769 78.1851 35.7854C81.3341 34.7143 90.4491 31.4006 90.5914 28.0354C90.6288 27.2421 90.5551 26.2042 90.4096 25.0672L91.1273 24.9039C93.7683 35.9452 97.1881 44.581 98.7686 44.2036C100.349 43.8262 98.5435 34.8003 95.9024 23.7591M74.7417 40.9742C75.1445 40.8569 75.4464 41.3544 75.1409 41.6489C74.9228 41.8609 74.501 42.0694 73.7055 42.2696C72.2383 42.654 66.1785 44.2214 62.8797 45.2191L62.8301 45.1079C66.4175 43.6693 72.5725 41.6344 74.7417 40.9742ZM73.4873 38.0585C73.8513 38.1124 74.2949 38.7628 72.872 39.1228C69.9816 39.856 61.9749 42.5728 58.8325 43.5192L58.7829 43.408C63.5212 41.5972 71.6113 37.8138 73.4764 38.0702M72.5969 35.1967C72.7954 35.3588 72.894 35.864 72.0637 36.043C67.7218 36.9789 57.7839 40.9576 54.7874 41.8758L54.7492 41.7642C60.6383 39.5811 71.0164 34.1035 72.5969 35.1967ZM71.5253 32.3306C71.6817 32.5734 71.5244 32.8962 71.2437 32.9522C65.4507 34.1022 53.5933 39.3538 50.7311 40.2329L50.6925 40.1099C57.732 37.5433 70.2278 30.3555 71.514 32.331M48.1209 18.5002C49.4977 17.8252 51.3099 16.9977 52.7619 16.5121L52.5776 17.3111C51.1482 17.7958 49.3886 18.5195 48.034 19.1823L48.1322 18.4998L48.1209 18.5002ZM47.9366 20.1816C49.346 19.4713 50.8153 18.8493 52.4793 18.2877C52.4793 18.2877 52.4049 19.8856 52.7954 21.5109C51.2869 21.9987 49.649 22.6498 47.9024 23.4182C47.724 22.011 47.7962 20.9449 47.9253 20.182M72.9244 19.2677C48.2312 24.9101 32.544 32.0621 32.544 32.0621C50.6319 25.5646 64.545 21.9988 72.88 20.1744C72.8726 20.5706 72.8765 20.9664 72.8912 21.3504C70.5543 21.7682 55.3466 24.6144 18.2271 38.6637C17.9817 38.7523 17.7249 38.8414 17.4686 38.9417C10.4103 41.6108 8.04769 42.8327 7.36947 43.4357C6.45625 43.516 5.93404 43.4682 5.88062 43.2553C5.7182 42.5602 10.1215 40.2757 16.618 37.4132C18.398 36.6322 19.3175 34.6512 18.7824 32.7939C17.4638 28.2065 15.5397 21.4024 15.1045 20.0843C14.7848 19.1237 14.071 19.0945 13.3776 19.3021C12.9305 19.4437 12.6873 19.2947 13.2421 19.0132C14.4299 18.4246 15.1363 18.5559 15.5238 18.9256C16.5199 19.8263 19.2559 27.1535 21.0378 30.5467C22.5881 33.5076 25.117 34.2589 28.7452 32.4115C38.2878 27.5656 42.1182 23.3235 46.6723 20.8409C46.6023 21.6694 46.6187 22.6869 46.7902 23.9134C42.9878 25.643 38.5567 28.0869 34.477 30.5512C39.1036 28.4845 44.0851 26.5285 48.4845 25.0248C56.6245 22.2463 65.9632 19.7498 73.0257 18.3701C72.9796 18.6434 72.9461 18.9501 72.9248 19.279M87.7763 3.9124C88.3815 3.76473 90.4772 11.207 92.6999 20.4883L90.8392 20.933C88.6168 11.663 87.1711 4.06006 87.7876 3.91196M74.4736 19.8417C76.6954 19.3718 78.425 19.0452 79.6388 18.8403C79.9086 18.796 80.0911 18.5401 80.0585 18.2812C80.0142 18.0114 79.7466 17.818 79.466 17.8741C77.8159 18.2089 76.2002 18.5537 74.6188 18.9085C74.7913 18.3929 75.138 17.9949 75.6763 17.8725C78.4555 17.1888 82.3878 16.4836 85.0865 16.6515C87.3543 16.7907 88.3508 19.4674 88.4663 19.825C87.8299 18.5711 87.1001 17.8299 86.5171 17.9654C85.5417 18.1951 85.3356 20.7823 86.0483 23.7301C86.103 23.9768 86.169 24.2232 86.2346 24.4582C85.4547 24.771 79.8168 26.424 75.653 27.2852C74.8529 24.7141 74.3878 22.0283 74.474 19.853M88.4568 29.5992C87.282 30.8208 83.1559 32.6647 78.8339 34.1202C78.3322 33.4268 77.8483 32.6082 77.3948 31.698C80.8887 30.7721 85.3024 29.0529 87.6142 27.6858C88.079 28.3015 88.6737 28.7651 89.066 28.6708C89.1781 28.6439 89.2889 28.5831 89.3871 28.4888C89.1385 29.0866 88.4573 29.6105 88.4573 29.6105M88.8214 23.4766C88.6724 22.8375 89.0552 22.2006 89.6943 22.0516L96.0613 20.529C96.3749 20.449 96.6995 20.6515 96.7794 20.9652C96.8593 21.2789 96.6568 21.6034 96.3431 21.6833L88.8218 23.4879L88.8214 23.4766ZM98.3058 40.986C97.7006 41.1337 95.6049 33.6914 93.3826 24.4214L95.2429 23.9654C97.4653 33.2354 98.911 40.8383 98.2945 40.9864" fill="url(#paint2_radial_3626_22582)"/>
<path opacity="0.4" d="M11.2812 37.2142C10.2925 37.7132 9.15769 36.8715 9.34828 35.7805L10.6406 28.383C10.8959 26.9216 12.9812 26.8871 13.2847 28.3393L14.5598 34.441C14.6844 35.0377 14.3927 35.6437 13.8485 35.9183L11.2812 37.2142Z" fill="#FF6E6A"/>
<path d="M56.1869 45.5536C53.586 43.5906 48.7856 42.8103 47.0343 42.8776C53.8682 38.1459 68.343 30.1817 70.8648 30.0849C73.3867 29.9881 74.5586 32.3055 74.9484 33.3219C75.936 36.2062 77.6514 41.0303 78.1192 42.25C78.5869 43.4698 77.0303 44.3824 76.5115 44.5742L72.0366 45.8772L63.0236 46.8382C61.9794 47.0502 58.7878 47.5165 56.1869 45.5536Z" fill="url(#paint3_radial_3626_22582)"/>
<defs>
<linearGradient id="paint0_linear_3626_22582" x1="93.5282" y1="2.4221" x2="72.0741" y2="52.2962" gradientUnits="userSpaceOnUse">
<stop stop-color="#BF3A33"/>
<stop offset="1" stop-color="#F12D23"/>
</linearGradient>
<radialGradient id="paint1_radial_3626_22582" cx="0" cy="0" r="1" gradientUnits="userSpaceOnUse" gradientTransform="translate(9.18815 30.5524) rotate(-83.8725) scale(18.5958 5.39239)">
<stop stop-color="#FF9292"/>
<stop offset="1" stop-color="#B28F96" stop-opacity="0"/>
</radialGradient>
<radialGradient id="paint2_radial_3626_22582" cx="0" cy="0" r="1" gradientUnits="userSpaceOnUse" gradientTransform="translate(40.7868 23.0521) rotate(-15.5332) scale(31.1318 9.02756)">
<stop stop-color="#A90000"/>
<stop offset="1" stop-color="#FF4036"/>
</radialGradient>
<radialGradient id="paint3_radial_3626_22582" cx="0" cy="0" r="1" gradientUnits="userSpaceOnUse" gradientTransform="translate(54.4627 45.8805) rotate(-23.653) scale(25.1896 5.10828)">
<stop stop-color="#FFBABA"/>
<stop offset="1" stop-color="#FF4B6F" stop-opacity="0"/>
</radialGradient>
</defs>
</svg>
