<svg width="48" height="48" viewBox="0 0 48 48" fill="none" xmlns="http://www.w3.org/2000/svg">
<g filter="url(#filter0_b_661_4144)">
<path d="M0 24C0 10.7452 10.7452 0 24 0V0C37.2548 0 48 10.7452 48 24V24C48 37.2548 37.2548 48 24 48V48C10.7452 48 0 37.2548 0 24V24Z" fill="#494949" fill-opacity="0.16"/>
<path d="M24 47.625C10.9523 47.625 0.375 37.0477 0.375 24C0.375 10.9523 10.9523 0.375 24 0.375C37.0477 0.375 47.625 10.9523 47.625 24C47.625 37.0477 37.0477 47.625 24 47.625Z" stroke="url(#paint0_linear_661_4144)" stroke-opacity="0.5" stroke-width="0.75"/>
<path d="M12.75 34C15.6697 30.9032 19.6338 29 24 29C28.3662 29 32.3303 30.9032 35.25 34M29.625 18.375C29.625 21.4816 27.1066 24 24 24C20.8934 24 18.375 21.4816 18.375 18.375C18.375 15.2684 20.8934 12.75 24 12.75C27.1066 12.75 29.625 15.2684 29.625 18.375Z" stroke="white" stroke-width="1.5" stroke-linecap="round" stroke-linejoin="round"/>
</g>
<defs>
<filter id="filter0_b_661_4144" x="-15" y="-15" width="78" height="78" filterUnits="userSpaceOnUse" color-interpolation-filters="sRGB">
<feFlood flood-opacity="0" result="BackgroundImageFix"/>
<feGaussianBlur in="BackgroundImageFix" stdDeviation="7.5"/>
<feComposite in2="SourceAlpha" operator="in" result="effect1_backgroundBlur_661_4144"/>
<feBlend mode="normal" in="SourceGraphic" in2="effect1_backgroundBlur_661_4144" result="shape"/>
</filter>
<linearGradient id="paint0_linear_661_4144" x1="4.32" y1="2.51055e-06" x2="45.9225" y2="2.02939" gradientUnits="userSpaceOnUse">
<stop stop-color="white" stop-opacity="0.2"/>
<stop offset="0.495" stop-color="white"/>
<stop offset="1" stop-color="white" stop-opacity="0.2"/>
</linearGradient>
</defs>
</svg>
